<svg version="1.1" id="Layer_1" xmlns="http://www.w3.org/2000/svg" xmlns:xlink="http://www.w3.org/1999/xlink" x="0px" y="0px"
	 width="100%" viewBox="0 0 560 544" enable-background="new 0 0 560 544" xml:space="preserve">
<path fill="#000000" opacity="1.000000" stroke="none" 
	d="
M221.468536,545.000000 
	C217.429672,542.216003 212.872696,542.470764 208.851685,541.070129 
	C207.128174,540.469727 205.343201,540.046265 203.587082,539.539185 
	C200.959183,538.780396 199.139328,537.200378 198.845749,534.377380 
	C198.571152,531.736755 200.060577,529.950378 202.189926,528.688293 
	C209.494720,524.358582 216.831238,520.082458 224.141693,515.762207 
	C225.692200,514.845886 227.478012,514.227783 228.797821,512.161682 
	C223.208969,509.792297 217.353394,508.852905 211.685303,507.371277 
	C208.126373,506.441040 206.172058,505.411072 207.519928,500.962219 
	C208.774124,496.822540 209.900681,494.552032 214.893524,496.033813 
	C224.613235,498.918427 234.488037,501.278442 244.286667,503.900269 
	C247.271683,504.698944 250.087997,505.866089 250.680450,509.407867 
	C251.295761,513.086243 248.734650,514.750610 246.064499,516.312927 
	C237.630600,521.247559 229.207382,526.200439 220.044113,531.578125 
	C225.951569,534.377258 231.541901,535.203308 236.902863,536.422424 
	C241.695251,537.512146 243.519821,539.495911 242.005066,544.606079 
	C235.312363,545.000000 228.624710,545.000000 221.468536,545.000000 
z"/>
<path fill="#000000" opacity="1.000000" stroke="none" 
	d="
M292.458069,545.000000 
	C290.636780,531.100647 289.180542,517.209656 287.944214,503.298981 
	C287.164948,494.531158 293.517822,487.723785 303.057495,486.782928 
	C309.339844,486.163300 315.636017,485.678253 321.912720,485.008667 
	C324.838226,484.696564 326.709320,485.682892 326.247284,488.732941 
	C325.845398,491.386108 329.801697,495.767303 323.533691,496.391083 
	C317.580780,496.983551 311.639130,497.692596 305.683350,498.252563 
	C300.001801,498.786774 299.012787,500.300293 299.612701,505.945435 
	C300.963623,518.657166 302.020660,531.400146 303.098633,544.565186 
	C299.638702,545.000000 296.277435,545.000000 292.458069,545.000000 
z"/>
<path fill="#000000" opacity="1.000000" stroke="none" 
	d="
M260.460632,545.000000 
	C260.890564,536.096191 261.794617,527.193665 262.659607,518.287415 
	C262.820099,516.635010 262.705780,514.952087 262.920288,513.309631 
	C263.745087,506.994476 267.695831,504.975311 273.257538,507.939880 
	C275.197815,508.974121 274.681854,510.639496 274.547821,512.301086 
	C273.693024,522.895508 272.888855,533.494019 272.033997,544.545593 
	C268.307098,545.000000 264.614166,545.000000 260.460632,545.000000 
z"/>
<path fill="#000000" opacity="1.000000" stroke="none" 
	d="
M364.494812,390.504822 
	C351.761932,377.763672 339.206604,365.343658 326.853485,352.725677 
	C324.070374,349.882904 321.995819,349.344299 318.356140,351.524658 
	C253.712799,390.249695 171.083405,353.850159 156.057968,280.138641 
	C143.865982,220.327393 184.606155,161.636490 245.100006,151.863419 
	C303.312042,142.458969 359.897552,182.648712 369.160980,240.228928 
	C373.376160,266.429932 369.224670,291.307770 355.424561,314.196198 
	C352.951324,318.298157 353.472656,320.710938 356.791290,323.961456 
	C373.095612,339.931152 389.264862,356.042938 405.262787,372.319824 
	C417.154633,384.419006 412.292328,403.113800 396.219177,407.603973 
	C389.143036,409.580750 382.630096,408.037079 377.200439,403.034058 
	C372.915344,399.085663 368.887543,394.858002 364.494812,390.504822 
M310.615540,322.124146 
	C335.409515,302.040222 345.766541,276.090057 340.536804,244.693649 
	C333.660248,203.410873 294.507324,174.837814 253.179871,180.096085 
	C213.613342,185.130295 184.708176,216.304825 183.090454,255.688263 
	C181.237000,300.810364 216.920517,338.423676 262.089508,338.590515 
	C279.757812,338.655792 295.806702,333.130981 310.615540,322.124146 
z"/>
<path fill="#000000" opacity="1.000000" stroke="none" 
	d="
M103.151230,387.706970 
	C101.356300,400.699982 92.789238,406.518585 81.881172,410.862793 
	C70.944321,415.218414 60.702957,416.331665 50.880493,408.516937 
	C48.010719,412.570007 48.441349,417.340149 45.330563,421.783569 
	C42.934509,414.788239 37.654160,409.377411 41.295219,401.802826 
	C43.589264,397.030457 42.339283,392.545197 40.318222,387.925934 
	C36.348701,378.853302 35.400043,369.327911 42.368713,361.575104 
	C51.317841,351.619049 63.182461,347.022797 76.681839,347.585052 
	C82.852997,347.842133 88.126328,350.923462 91.442062,355.905548 
	C97.744659,365.375671 102.394829,375.656189 103.151230,387.706970 
M58.821037,399.748962 
	C61.851025,402.660156 65.607704,403.417603 69.486084,402.600616 
	C75.714157,401.288605 81.640434,398.846985 86.805504,395.183594 
	C90.862396,392.306244 92.622177,387.889282 91.084015,382.839478 
	C89.241104,376.789093 86.902969,370.898346 83.916763,365.321320 
	C81.110497,360.080353 76.360329,357.977783 70.516083,359.160675 
	C65.426010,360.190918 60.712505,362.358398 56.127735,364.678802 
	C50.237610,367.659882 47.796856,372.309296 49.478588,378.739929 
	C51.364265,385.950378 53.966866,393.003143 58.821037,399.748962 
z"/>
<path fill="#000000" opacity="1.000000" stroke="none" 
	d="
M34.205597,213.904785 
	C24.840776,204.968826 23.005875,196.978699 27.488359,185.324783 
	C29.218103,180.827667 30.811840,176.248306 32.941895,171.940979 
	C38.277233,161.152069 49.096359,156.415894 60.486645,159.975067 
	C65.545448,161.555801 70.500549,163.624863 75.263298,165.960510 
	C82.688164,169.601654 86.464188,176.058975 87.743584,184.252914 
	C92.467827,184.524323 95.163101,179.901688 100.466011,179.457428 
	C97.477081,185.878784 97.278786,193.069504 89.892700,195.836197 
	C84.985031,197.674545 83.054489,201.751831 81.441002,206.229034 
	C78.134697,215.403641 71.936272,221.286880 62.080006,222.862503 
	C57.304359,223.625931 52.839550,222.350357 48.501965,220.578201 
	C43.742012,218.633514 38.749233,217.174805 34.205597,213.904785 
M51.898033,170.208359 
	C47.685783,170.588821 44.688385,172.866119 43.009350,176.579330 
	C40.749641,181.576736 38.563026,186.638794 36.832008,191.835327 
	C34.834103,197.833069 37.128712,203.258545 42.763901,206.132996 
	C46.603172,208.091400 50.641472,209.754425 54.741364,211.085815 
	C61.597363,213.312195 66.993362,211.060333 70.056763,204.518021 
	C72.377373,199.562057 74.266357,194.375183 75.970734,189.167770 
	C77.588394,184.225357 75.923546,179.152786 71.359383,176.643982 
	C65.575844,173.464920 59.665039,170.201065 51.898033,170.208359 
z"/>
<path fill="#000000" opacity="1.000000" stroke="none" 
	d="
M52.016792,266.633972 
	C62.521576,272.613647 66.977386,281.415009 65.198227,292.084198 
	C63.638657,301.436584 56.021015,308.670074 45.513004,310.776611 
	C33.095043,313.266113 20.483934,303.342560 18.860775,289.804352 
	C17.415455,277.749390 27.450281,265.490967 39.454639,264.711700 
	C43.631626,264.440552 47.791813,264.492310 52.016792,266.633972 
z"/>
<path fill="#000000" opacity="1.000000" stroke="none" 
	d="
M541.683289,302.609894 
	C530.914795,313.759857 515.799988,313.864838 506.275574,303.138611 
	C497.169769,292.883881 498.963013,277.125854 510.181000,268.820099 
	C518.357544,262.766174 530.606812,263.147339 538.484741,269.700867 
	C546.964111,276.754700 549.510864,288.540802 544.569458,298.111389 
	C543.810303,299.581665 542.803406,300.924011 541.683289,302.609894 
z"/>
<path fill="#000000" opacity="1.000000" stroke="none" 
	d="
M430.841034,448.738220 
	C440.156494,442.009583 446.930267,442.763641 454.182007,451.122681 
	C457.019562,454.393463 459.913025,457.626434 462.570221,461.040710 
	C468.009796,468.029907 467.591553,475.628510 461.179352,481.618408 
	C456.318604,486.158966 451.218567,490.479248 445.944733,494.532837 
	C438.962311,499.899780 430.538361,499.051483 425.401611,492.859711 
	C419.695831,485.982056 420.207520,477.592010 426.914917,471.502960 
	C430.733704,468.036163 434.906708,464.960785 438.747681,461.516724 
	C442.505524,458.147186 443.769104,461.687073 445.778992,463.683319 
	C448.134247,466.022675 448.455811,467.895844 445.515106,470.139954 
	C441.684082,473.063416 438.074982,476.286774 434.468933,479.491974 
	C432.746582,481.022797 431.621918,482.919067 433.412598,485.158600 
	C435.288086,487.504150 437.518280,487.153198 439.552704,485.509460 
	C444.085052,481.847412 448.553314,478.102356 452.958679,474.288330 
	C455.393005,472.180725 455.359039,469.691986 453.468323,467.192993 
	C452.765839,466.264496 451.974396,465.403107 451.219940,464.514130 
	C440.657318,452.068420 443.106934,453.237671 431.126373,462.801941 
	C429.045776,464.462952 426.781860,465.983185 425.032288,467.950562 
	C421.857208,471.520874 419.838013,470.309723 417.130096,467.206543 
	C414.314758,463.980255 414.720001,461.983612 417.904297,459.528442 
	C422.252411,456.175934 426.352020,452.501099 430.841034,448.738220 
z"/>
<path fill="#000000" opacity="1.000000" stroke="none" 
	d="
M525.480896,388.347107 
	C524.067505,391.777496 523.023682,394.974121 520.568665,397.400330 
	C516.480713,401.440308 511.746643,403.439423 506.070160,401.417389 
	C500.743591,399.519989 495.445312,397.499146 490.278229,395.208588 
	C482.520569,391.769684 479.216675,384.230713 482.081116,376.246582 
	C484.328827,369.981628 486.842773,363.787323 489.655396,357.756104 
	C493.256195,350.034729 501.062622,346.917938 508.328491,349.867218 
	C516.607422,353.227722 520.152588,360.441559 517.292175,368.848022 
	C515.525024,374.041412 513.171814,379.032562 511.201080,384.160370 
	C509.663849,388.160187 507.134399,386.378510 504.712738,385.442902 
	C502.172943,384.461670 499.492493,383.718719 501.208618,379.866119 
	C503.172577,375.457336 504.836975,370.914215 506.597961,366.416290 
	C507.627747,363.785950 507.547668,361.365631 504.512146,360.204529 
	C501.693115,359.126160 500.154877,360.799408 499.170288,363.229889 
	C497.107086,368.322754 495.043457,373.415436 492.966400,378.502625 
	C491.502991,382.086914 492.311615,384.599762 496.171600,385.968597 
	C499.465576,387.136688 502.722412,388.433014 505.919373,389.845428 
	C510.113190,391.698151 512.920959,390.770996 514.516968,386.284119 
	C515.910950,382.365143 517.726807,378.594147 519.072998,374.660828 
	C520.528015,370.409790 523.067810,371.328583 526.137390,372.569763 
	C529.134521,373.781677 531.228516,374.989716 529.404175,378.745361 
	C527.952393,381.734039 526.869202,384.901703 525.480896,388.347107 
z"/>
<path fill="#000000" opacity="1.000000" stroke="none" 
	d="
M453.985596,108.993973 
	C456.467010,106.009071 455.409668,103.867973 453.081482,101.892494 
	C448.767639,98.232162 444.571289,94.426239 440.148376,90.904015 
	C437.131775,88.501709 438.095703,86.587250 440.222961,84.359718 
	C442.188110,82.301933 443.663239,79.711571 446.993134,82.845673 
	C451.591797,87.173904 456.691315,90.973289 461.249878,95.339989 
	C467.469147,101.297585 467.883911,108.225700 462.529419,114.959396 
	C459.222839,119.117668 455.715790,123.161583 451.932495,126.884644 
	C446.871399,131.865112 439.832214,132.265060 434.218536,127.887505 
	C428.976532,123.799713 423.882538,119.480682 419.056549,114.911591 
	C413.296051,109.457680 412.915466,101.194641 417.730438,95.565651 
	C422.970764,89.439392 431.287659,88.603691 437.818481,93.686966 
	C441.098389,96.239883 444.241486,98.975266 447.365234,101.720535 
	C452.121155,105.900139 452.120636,106.488846 447.691010,111.120735 
	C447.017883,111.824570 446.194336,112.384529 445.327209,113.105072 
	C440.582336,110.654953 437.258789,106.591309 433.182281,103.504669 
	C431.002686,101.854340 428.686188,99.787468 426.249634,102.544479 
	C423.777954,105.341270 426.091003,107.427673 428.158569,109.210594 
	C431.812103,112.361115 435.505066,115.467453 439.231781,118.531097 
	C441.712280,120.570267 444.143890,120.352135 446.269501,117.960121 
	C448.810730,115.100372 451.272003,112.169586 453.985596,108.993973 
z"/>
<path fill="#000000" opacity="1.000000" stroke="none" 
	d="
M173.594910,506.729126 
	C170.530914,507.683746 167.840683,508.499817 163.596008,509.787476 
	C169.594589,513.049011 174.429367,515.664551 179.251541,518.303101 
	C185.054947,521.478638 184.955688,521.647156 181.982346,527.341064 
	C180.170639,530.810547 178.356171,531.227661 174.976257,529.273315 
	C166.040482,524.106628 156.907150,519.281372 147.848526,514.327393 
	C145.140167,512.846191 142.497406,511.224335 142.806259,507.605499 
	C143.142090,503.670563 146.364273,502.718079 149.430481,501.790771 
	C157.232574,499.431152 165.050186,497.122772 172.865097,494.805756 
	C174.258804,494.392548 175.803848,494.329926 177.015869,492.802826 
	C172.893936,489.608398 168.224091,487.488800 163.736008,485.093597 
	C156.622910,481.297363 156.476059,480.882782 161.027100,473.966156 
	C161.471924,473.290131 162.030975,472.689270 162.608551,471.963654 
	C167.136780,473.196747 170.826263,475.852631 174.778458,477.905396 
	C181.575027,481.435486 188.253082,485.195801 194.946884,488.920593 
	C197.353592,490.259796 199.487885,491.993866 199.176239,495.124786 
	C198.849380,498.408325 196.455627,499.918915 193.587799,500.780640 
	C187.055939,502.743408 180.509323,504.657013 173.594910,506.729126 
z"/>
<path fill="#000000" opacity="1.000000" stroke="none" 
	d="
M520.396362,208.309341 
	C519.710449,200.903183 516.322876,194.745346 513.487122,188.418396 
	C512.549316,186.326050 510.510223,186.075104 508.326965,186.971619 
	C504.636780,188.486862 500.891602,189.868256 497.168335,191.302734 
	C493.719940,192.631287 492.696533,194.765045 494.258514,198.351425 
	C496.376434,203.214203 498.131317,208.235092 499.930176,212.898499 
	C499.371796,214.548965 498.222900,214.876526 497.167755,215.347946 
	C490.961334,218.120926 490.833923,218.094910 488.317017,211.584381 
	C486.641357,207.249985 484.769043,202.960114 483.517151,198.500854 
	C481.673462,191.933563 484.582184,185.498917 490.686554,182.715652 
	C495.816528,180.376694 501.117950,178.327316 506.498413,176.645493 
	C513.620667,174.419189 520.329834,177.603745 523.301697,184.425430 
	C525.823669,190.214371 528.205383,196.079025 530.319946,202.027206 
	C533.105347,209.862701 529.862732,217.041595 522.492859,220.091949 
	C515.009033,223.189484 507.738037,220.482025 504.182373,212.932220 
	C501.918610,208.125565 500.148102,203.087219 498.137878,198.160324 
	C496.454498,194.034470 500.138428,193.975189 502.241852,192.867737 
	C504.452759,191.703659 506.600739,191.150818 507.813385,194.419342 
	C509.431946,198.782059 511.133789,203.126984 513.076599,207.352280 
	C514.728638,210.945145 517.148743,212.229767 520.396362,208.309341 
z"/>
<path fill="#000000" opacity="1.000000" stroke="none" 
	d="
M83.106972,427.100891 
	C88.642845,422.531677 93.969536,418.265472 99.176010,413.857239 
	C103.321220,410.347565 104.488052,414.491516 106.481575,416.533691 
	C108.567009,418.670135 109.677628,420.535950 106.437401,422.980835 
	C101.130608,426.984955 96.040688,431.299744 91.073250,435.723694 
	C86.222519,440.043671 85.948128,443.714966 89.849968,448.788391 
	C92.791267,452.612885 95.931305,456.285004 99.006729,460.005280 
	C99.418053,460.502808 99.969505,460.884552 100.915970,461.731384 
	C107.205399,456.586090 113.429512,451.420288 119.734573,446.355286 
	C127.218277,440.343506 128.037460,440.579163 133.136444,450.196716 
	C125.853027,456.241730 118.487801,462.406311 111.066406,468.502502 
	C98.811073,478.569489 99.567078,479.158142 89.199783,466.277222 
	C86.591240,463.036194 83.857323,459.896271 81.241158,456.661255 
	C73.098595,446.592468 73.668091,436.422455 83.106972,427.100891 
z"/>
<path fill="#000000" opacity="1.000000" stroke="none" 
	d="
M165.755524,66.072372 
	C160.060959,67.335579 155.400055,70.630333 150.593369,73.492668 
	C146.212189,76.101616 145.219040,73.019127 143.489487,70.373505 
	C141.624786,67.521149 141.394974,65.532867 144.973114,63.662411 
	C153.973450,58.957527 162.794968,53.910976 171.699097,49.021301 
	C174.333282,47.574738 177.027603,46.892391 179.577362,49.154297 
	C181.972717,51.279236 181.425140,53.868038 180.659760,56.539730 
	C178.110748,65.437523 175.636246,74.356651 172.739731,84.668335 
	C178.977844,81.262154 184.135025,78.730652 188.988815,75.711433 
	C193.355759,72.995056 194.304993,76.277664 196.024231,78.928772 
	C197.993866,81.965958 197.608856,83.828384 194.237015,85.597878 
	C185.538467,90.162773 177.010406,95.051903 168.397095,99.780258 
	C165.686050,101.268532 162.850647,102.402794 160.022675,100.138382 
	C157.270569,97.934700 158.204575,95.015350 158.892349,92.284897 
	C161.083908,83.584236 164.382370,75.182060 165.755524,66.072372 
z"/>
<path fill="#000000" opacity="1.000000" stroke="none" 
	d="
M216.327759,77.669785 
	C212.895096,78.604866 209.982285,78.942131 207.856018,75.884621 
	C205.815277,72.950043 207.455475,70.477470 208.856949,68.020058 
	C213.301270,60.227154 217.793228,52.461414 222.719437,43.898323 
	C216.232239,44.314686 211.049698,46.358639 205.768448,47.776409 
	C202.296829,48.708378 200.179062,48.622112 199.301590,44.379734 
	C198.546982,40.731400 197.884445,38.163879 202.774673,37.027824 
	C212.495682,34.769535 222.104080,32.016560 231.727005,29.352346 
	C234.551697,28.570299 237.002472,28.629538 238.947174,31.066143 
	C240.993179,33.629688 239.927521,36.053417 238.547852,38.467136 
	C233.940002,46.528584 229.350952,54.600780 225.398453,63.819878 
	C230.387955,62.509144 235.376862,61.196053 240.367126,59.888283 
	C246.338776,58.323326 246.654694,58.608849 248.145081,64.469688 
	C248.976227,67.738075 248.043762,69.369171 244.730667,70.193886 
	C235.367981,72.524490 226.058105,75.067284 216.327759,77.669785 
z"/>
<path fill="#000000" opacity="1.000000" stroke="none" 
	d="
M395.335358,489.401489 
	C390.188232,491.848694 385.401093,494.183289 380.567047,496.416382 
	C377.119568,498.008942 376.416779,500.407318 378.042664,503.727631 
	C379.579865,506.866821 381.145050,510.000000 382.496704,513.220276 
	C384.085541,517.005554 386.538361,517.612610 390.082886,515.926208 
	C396.846924,512.708008 403.668793,509.611084 410.478973,506.490723 
	C411.663910,505.947845 412.909332,505.537109 414.261627,505.013062 
	C416.518616,507.937714 418.305603,510.823151 418.825897,514.788696 
	C409.650513,519.474487 400.643921,524.556152 390.934082,527.970276 
	C383.526825,530.574768 376.874664,527.509155 373.499207,520.412598 
	C370.324890,513.738892 365.514709,507.673615 365.571411,499.675140 
	C365.609589,494.293915 367.745697,490.195312 372.403473,487.797791 
	C380.539612,483.609802 388.868500,479.797882 397.086029,475.765991 
	C401.387238,473.655548 401.713654,477.434021 402.892059,479.692780 
	C404.075958,481.962128 405.966370,484.528748 401.983276,486.228363 
	C399.841461,487.142273 397.775482,488.233978 395.335358,489.401489 
z"/>
<path fill="#000000" opacity="1.000000" stroke="none" 
	d="
M109.616280,135.674942 
	C110.360695,134.754974 110.817413,134.035858 111.422882,133.478256 
	C114.637589,130.517670 114.284584,128.272110 110.691872,125.636917 
	C104.798912,121.314514 99.351494,116.389565 93.542786,111.945351 
	C90.683548,109.757767 90.630569,107.867851 93.084854,105.495300 
	C95.169464,103.480095 96.352844,99.666054 100.479698,103.132385 
	C108.497932,109.867256 116.837303,116.218567 124.906219,122.894852 
	C129.038971,126.314339 129.169312,128.875275 125.804176,133.144974 
	C121.482307,138.628586 117.178886,144.136017 112.631645,149.430618 
	C105.206581,158.076019 95.075478,159.105789 86.052711,152.229050 
	C80.896507,148.299225 75.970177,144.065811 70.782661,140.179596 
	C66.200462,136.746841 70.165260,134.681580 71.735466,132.102615 
	C73.520691,129.170486 75.307899,129.397034 77.728477,131.463943 
	C82.025146,135.132812 86.521835,138.567734 90.941452,142.092239 
	C97.302521,147.164963 100.237434,146.873779 105.627754,140.599503 
	C106.927338,139.086792 108.142982,137.501968 109.616280,135.674942 
z"/>
<path fill="#000000" opacity="1.000000" stroke="none" 
	d="
M392.893372,61.244694 
	C388.472656,58.490082 386.068146,59.852898 384.018250,64.035194 
	C377.765167,76.793159 377.644196,76.748901 390.259888,83.051811 
	C394.281250,85.060905 398.285858,87.120735 402.404724,88.912315 
	C406.202789,90.564346 404.956604,92.853981 403.596252,95.328018 
	C402.292572,97.699028 401.760101,101.034714 397.594391,98.888664 
	C390.489990,95.228691 383.150513,92.012459 376.134857,88.196114 
	C367.939941,83.738312 365.884399,76.803452 369.775330,68.343086 
	C371.514313,64.561844 373.242554,60.770161 375.148712,57.072407 
	C379.152039,49.306461 386.532562,46.452888 394.490723,49.958244 
	C401.951965,53.244720 409.170563,57.077980 416.549194,60.557774 
	C420.990692,62.652420 417.899078,65.197853 417.061798,67.530212 
	C416.167114,70.022522 415.014099,72.162773 411.612793,70.423309 
	C405.535126,67.315109 399.361237,64.394981 392.893372,61.244694 
z"/>
<path fill="#000000" opacity="1.000000" stroke="none" 
	d="
M452.867371,418.984680 
	C452.320190,418.595734 452.051605,418.398346 451.781586,418.203003 
	C443.431274,412.161011 443.415497,411.870636 451.121796,404.345306 
	C453.558899,404.532745 455.087555,406.495575 457.050690,407.645935 
	C458.886383,408.721680 460.265900,410.570312 463.029388,411.024139 
	C465.659729,407.441833 468.508240,403.782806 471.114044,399.958435 
	C474.470490,395.032440 476.701843,399.602295 479.248749,400.839447 
	C482.019012,402.185089 482.627747,403.895233 480.501495,406.730591 
	C477.738098,410.415588 474.671295,413.971863 472.561371,418.755951 
	C479.485260,423.746185 486.335815,428.706787 493.211609,433.632202 
	C499.301361,437.994537 499.220215,438.122284 494.845612,443.987000 
	C492.803192,446.725098 491.145264,446.509399 488.691284,444.681580 
	C482.411591,440.004150 475.898193,435.637299 469.674255,430.889374 
	C466.479279,428.452118 464.143738,428.258575 462.174713,432.087494 
	C461.872162,432.675812 461.442627,433.200165 461.059601,433.745575 
	C457.588898,438.687683 453.003784,438.455536 449.566864,433.278931 
	C448.600983,431.824219 449.166260,430.751465 449.910919,429.642792 
	C451.304047,427.568787 452.706421,425.492920 454.242462,423.525177 
	C455.819427,421.504883 455.096466,420.225433 452.867371,418.984680 
z"/>
<path fill="#000000" opacity="1.000000" stroke="none" 
	d="
M466.282715,162.488861 
	C461.375763,163.223099 460.912994,158.988449 459.387146,156.462326 
	C457.810638,153.852386 460.910370,152.860107 462.503174,151.694336 
	C469.325531,146.701141 476.241150,141.835281 483.113953,136.929245 
	C482.227386,133.410980 479.872406,131.165848 478.131744,128.599884 
	C475.847290,125.232430 478.515442,124.124290 480.542938,122.877716 
	C482.551941,121.642502 484.572205,118.564529 487.141571,122.326294 
	C488.816559,124.778648 490.668884,127.109894 492.512451,129.590454 
	C495.845184,128.447983 498.273529,126.393196 500.741425,124.508835 
	C502.978760,122.800453 504.735229,122.857956 505.985046,125.361702 
	C507.222992,127.841614 511.388000,129.883469 507.507324,133.354630 
	C507.014679,133.795334 506.430481,134.133072 505.892853,134.524246 
	C499.169067,139.416489 499.168457,139.417358 504.174652,146.381317 
	C504.660400,147.057037 505.179840,147.708801 505.657532,148.389999 
	C509.051971,153.230347 507.438507,157.350174 501.673462,158.823669 
	C499.961548,159.261215 499.210358,158.245270 498.432159,157.169922 
	C496.675812,154.743042 494.806915,152.376358 493.283783,149.807327 
	C491.325409,146.504303 489.360443,146.015564 486.143829,148.434769 
	C479.762482,153.234238 473.122101,157.689224 466.282715,162.488861 
z"/>
<path fill="#000000" opacity="1.000000" stroke="none" 
	d="
M297.931763,67.674759 
	C289.222473,66.854828 289.451782,66.880150 290.389435,58.389107 
	C291.682373,46.681129 292.739349,34.941605 293.612793,23.194427 
	C294.398773,12.623880 300.398010,7.008377 310.915924,7.793403 
	C316.875366,8.238198 322.795563,9.237539 328.756989,9.618403 
	C333.456299,9.918633 332.149292,13.177744 332.244293,15.777211 
	C332.345215,18.538944 331.839111,20.750866 328.151306,20.401701 
	C322.530670,19.869539 316.871216,19.722977 311.261078,19.111675 
	C306.533020,18.596491 304.634186,20.536884 304.293335,25.167273 
	C303.403687,37.251366 302.318298,49.323334 301.101654,61.379009 
	C300.875305,63.621780 301.505890,66.590210 297.931763,67.674759 
z"/>
<path fill="#000000" opacity="1.000000" stroke="none" 
	d="
M136.958649,465.973389 
	C137.500458,465.315918 137.809402,464.924500 138.125870,464.539307 
	C144.461746,456.828033 145.104401,456.852356 151.907425,465.208130 
	C149.891220,469.387726 146.331940,472.483032 143.480438,476.090393 
	C138.021881,482.995789 132.234528,489.642242 126.813301,496.575714 
	C124.241608,499.864868 122.290329,498.215027 120.283844,496.303925 
	C118.354340,494.466217 114.468491,493.339630 117.782784,489.382812 
	C124.183846,481.740997 130.423004,473.963562 136.958649,465.973389 
z"/>
<path fill="#000000" opacity="1.000000" stroke="none" 
	d="
M350.973022,543.352295 
	C348.595734,543.018066 348.656464,541.222473 348.294769,539.876831 
	C345.229095,528.471252 342.420990,516.992737 339.142609,505.649689 
	C337.626129,500.402618 340.926056,499.943481 344.390625,498.797791 
	C348.502930,497.437927 349.576630,499.480469 350.425995,502.927582 
	C353.011963,513.422607 355.812744,523.865417 358.598297,534.310303 
	C360.414673,541.120972 360.469727,541.113220 353.793427,542.896545 
	C352.994080,543.110046 352.163666,543.207336 350.973022,543.352295 
z"/>
<path fill="#000000" opacity="1.000000" stroke="none" 
	d="
M136.985016,112.036400 
	C130.246918,104.009048 123.870728,96.140671 117.177551,88.551865 
	C113.644821,84.546402 117.243523,83.290565 119.305153,81.168716 
	C121.587364,78.819847 123.385666,78.397125 125.742081,81.303726 
	C132.638306,89.810074 139.581284,98.293579 146.878174,106.453171 
	C150.105164,110.061684 149.195206,112.059204 146.029419,114.904381 
	C142.391022,118.174278 140.270279,116.756035 138.153168,113.473076 
	C137.884995,113.057220 137.530014,112.697334 136.985016,112.036400 
z"/>
<path fill="#000000" opacity="1.000000" stroke="none" 
	d="
M273.317688,57.835968 
	C273.342743,59.119297 273.321106,59.952374 273.383636,60.779087 
	C273.795807,66.227516 270.124268,68.968956 264.904327,67.176163 
	C263.363373,66.646904 262.943237,65.527275 262.818054,64.140862 
	C261.774994,52.589352 260.762695,41.035007 259.693024,29.485975 
	C259.379578,26.102051 260.749481,24.658993 264.201965,24.623386 
	C267.377441,24.590635 270.454620,23.600748 270.766907,28.662376 
	C271.358582,38.251637 272.434967,47.810989 273.317688,57.835968 
z"/>
<path fill="#000000" opacity="1.000000" stroke="none" 
	d="
M347.657410,42.806450 
	C348.067566,41.124645 348.388428,39.838127 348.748199,38.562576 
	C350.310852,33.022175 351.122955,32.753250 356.833771,34.524193 
	C359.930878,35.484615 360.610809,36.984486 359.757385,40.034561 
	C356.769043,50.714256 353.914246,61.433350 351.180054,72.181053 
	C350.195129,76.052551 348.296356,76.661720 344.653473,75.488007 
	C341.205597,74.377113 339.127747,73.530312 340.528717,69.081810 
	C343.212128,60.561035 345.269135,51.842979 347.657410,42.806450 
z"/>
<path fill="#000000" opacity="1.000000" stroke="none" 
	d="
M315.246460,516.358398 
	C313.635986,516.518372 312.479858,516.637329 311.333527,516.818176 
	C304.534393,517.890991 301.789642,514.669312 303.775146,508.041748 
	C304.238495,506.495148 305.230652,505.940887 306.657440,505.788452 
	C312.430573,505.171539 318.207123,504.584442 323.975739,503.927765 
	C326.974548,503.586365 328.329010,504.899445 328.289795,507.852020 
	C328.261353,509.997253 328.284241,512.143188 328.284241,514.557617 
	C324.242157,516.075439 319.979889,516.247925 315.246460,516.358398 
z"/>
<path fill="#000000" opacity="1.000000" stroke="none" 
	d="
M330.325806,34.956131 
	C330.309143,38.084408 328.744232,38.672745 326.359283,38.455982 
	C321.066864,37.974968 315.765808,37.585846 310.465515,37.196262 
	C306.187378,36.881802 306.536591,33.939541 306.973419,31.027378 
	C307.408447,28.127005 307.826904,25.381786 312.124634,26.202955 
	C316.188171,26.979372 320.362854,27.426769 324.499176,27.513071 
	C331.499725,27.659140 331.053070,28.465311 330.325806,34.956131 
z"/>
<path fill="#000000" opacity="1.000000" stroke="none" 
	d="
M150.221283,451.711487 
	C150.483597,450.488678 150.751999,449.515533 151.293304,448.730621 
	C154.888443,443.517639 160.411041,444.054169 163.184509,449.804993 
	C164.044312,451.587830 162.867432,452.649139 161.928879,453.712769 
	C160.642319,455.170776 159.663361,456.996216 157.558624,457.810242 
	C154.676147,456.546997 152.533981,454.272949 150.221283,451.711487 
z"/>
<path fill="#000000" opacity="1.000000" stroke="none" 
	d="
M345.131653,490.032349 
	C343.841248,490.567108 342.925598,491.091461 341.973633,491.168793 
	C339.771271,491.347687 337.019287,493.863983 335.539581,490.357605 
	C334.574280,488.070251 332.467926,485.182343 334.571045,483.043945 
	C336.723694,480.855133 340.796631,479.485168 343.197510,480.724915 
	C346.175690,482.262787 346.799500,486.228577 345.131653,490.032349 
z"/>
<path fill="#000000" opacity="1.000000" stroke="none" 
	d="
M270.019348,488.725769 
	C274.873627,488.499512 276.807709,490.231171 276.286346,494.934296 
	C275.866302,498.723175 273.994751,499.609558 270.659363,499.313049 
	C267.639282,499.044617 264.465973,499.347870 264.672791,494.756226 
	C264.822998,491.420563 264.751282,488.166901 270.019348,488.725769 
z"/>
<path fill="#000000" opacity="1.000000" stroke="none" 
	d="
M115.565956,74.421478 
	C109.794800,79.437111 109.377533,79.428291 105.926941,74.949829 
	C104.517532,73.120590 103.113892,71.331383 105.836571,69.573280 
	C108.020790,68.162888 109.593948,63.980465 112.640816,66.271759 
	C114.682190,67.806892 118.966423,69.927017 115.565956,74.421478 
z"/>
<path fill="#000000" opacity="1.000000" stroke="none" 
	d="
M269.092285,9.222000 
	C268.964233,12.350744 270.826233,15.989923 266.171417,16.675537 
	C263.714630,17.037397 260.416382,18.693819 259.159149,15.566113 
	C258.269135,13.352014 256.325653,9.637683 259.354462,7.949268 
	C262.223694,6.349813 266.123108,4.927016 269.092285,9.222000 
z"/>
<path fill="#000000" opacity="1.000000" stroke="none" 
	d="
M357.670410,16.617130 
	C360.577484,18.111712 366.064148,16.294355 364.451721,22.307541 
	C363.965851,24.119505 364.110657,26.783241 361.902161,27.268999 
	C359.122894,27.880306 356.207520,26.905741 353.926910,25.282001 
	C351.494843,23.550432 353.789886,17.877197 357.670410,16.617130 
z"/>
<path fill="#000000" opacity="1.000000" stroke="none" 
	d="
M258.774384,207.821838 
	C258.853149,205.876358 258.719971,204.333420 259.052979,202.898682 
	C259.683990,200.179916 262.025024,200.785675 263.952026,200.720764 
	C265.881958,200.655731 266.569305,201.731979 266.563843,203.539001 
	C266.558807,205.198975 266.923096,206.889496 266.714020,208.513718 
	C266.154114,212.863785 268.174225,213.802582 272.157349,213.757019 
	C276.254456,213.710175 276.898712,211.657791 276.677643,208.391068 
	C276.599152,207.231506 276.745270,206.057281 276.676514,204.896408 
	C276.506348,202.025177 277.578735,200.606873 280.689819,200.653473 
	C283.637848,200.697632 284.226135,202.196121 284.354889,204.744476 
	C284.800934,213.573929 284.868500,213.570526 293.508362,213.664612 
	C303.105011,213.769150 309.845062,219.918549 310.008270,229.923828 
	C310.339508,250.231094 310.343323,270.550385 310.049988,290.858459 
	C309.894531,301.620972 302.575928,308.043152 291.543243,308.158508 
	C284.512146,308.232025 284.484619,308.231384 284.325073,315.139008 
	C284.265045,317.739166 284.406525,320.217285 280.627716,320.253021 
	C276.581848,320.291260 276.713837,317.646606 276.663666,314.857330 
	C276.542664,308.132935 276.222168,307.966217 270.705078,308.073059 
	C267.671539,308.131836 266.492126,309.318970 266.627167,312.253448 
	C266.695587,313.740326 266.368713,315.242188 266.385132,316.735443 
	C266.413635,319.325073 265.095612,320.248627 262.654266,320.229492 
	C260.194061,320.210236 258.933960,319.102142 258.858429,316.650085 
	C258.827698,315.651886 258.703247,314.641510 258.809296,313.656891 
	C259.234100,309.712402 257.839172,308.007141 253.557068,307.975983 
	C249.095352,307.943481 248.070084,309.994507 248.412796,313.780151 
	C248.502319,314.768951 248.355438,315.776825 248.377350,316.774597 
	C248.434723,319.387878 246.989029,320.244781 244.595078,320.233368 
	C242.153625,320.221741 240.848480,319.156036 240.820053,316.663971 
	C240.806763,315.498810 240.664032,314.318939 240.798157,313.171234 
	C241.270020,309.133820 239.349091,307.884094 235.554611,308.068054 
	C233.095459,308.187256 230.565857,307.855865 228.135574,307.380280 
	C220.900375,305.964386 215.711334,299.938263 215.679092,292.613770 
	C215.585327,271.302460 215.578827,249.990097 215.680573,228.678833 
	C215.720093,220.402985 222.341965,213.920105 230.589371,213.668091 
	C231.753632,213.632507 232.919861,213.659531 234.085190,213.660492 
	C240.679230,213.666016 240.581070,213.662689 240.826462,207.025116 
	C240.914627,204.639755 239.609818,201.293411 243.770828,200.751358 
	C246.826401,200.353302 249.187332,200.852325 248.618210,204.854401 
	C248.455719,205.996994 248.498749,207.179886 248.550415,208.339737 
	C248.699905,211.696152 249.622269,213.859161 253.844864,213.791229 
	C258.024048,213.724014 259.114319,211.885361 258.774384,207.821838 
M219.969925,289.302246 
	C220.411652,299.763214 224.418610,303.676208 234.769989,303.680481 
	C253.415436,303.688202 272.060883,303.681580 290.706329,303.659119 
	C301.093872,303.646606 305.631073,299.132904 305.644379,288.761902 
	C305.668030,270.282959 305.657104,251.803940 305.648651,233.324951 
	C305.643463,221.960388 301.751556,217.987656 290.402954,217.957672 
	C271.924774,217.908844 253.446335,217.916229 234.968094,217.952011 
	C223.621307,217.973969 220.010040,221.636002 220.007645,232.914719 
	C220.003708,251.393539 219.994034,269.872375 219.969925,289.302246 
z"/>
<path fill="#000000" opacity="1.000000" stroke="none" 
	d="
M290.790863,227.887512 
	C295.559357,231.201614 297.493958,235.430450 297.435394,240.882111 
	C297.292419,254.188477 297.448029,267.497833 297.348785,280.804962 
	C297.280914,289.903503 291.808502,295.324188 282.675049,295.379059 
	C269.367645,295.458984 256.059021,295.459259 242.751633,295.376434 
	C233.481186,295.318726 227.790405,289.749115 227.700821,280.501007 
	C227.571915,267.194397 227.579117,253.884750 227.701385,240.577972 
	C227.784409,231.542572 233.738525,225.763367 242.899597,225.705872 
	C255.874283,225.624420 268.850006,225.721664 281.824951,225.662903 
	C284.900146,225.648987 287.759613,226.240189 290.790863,227.887512 
z"/>
</svg>